<svg width="1760" height="1760" xmlns="http://www.w3.org/2000/svg" xmlns:xlink="http://www.w3.org/1999/xlink" xml:space="preserve" overflow="hidden"><defs><clipPath id="clip0"><rect x="1275" y="321" width="1760" height="1760"/></clipPath><linearGradient x1="2156" y1="354" x2="2156" y2="2044" gradientUnits="userSpaceOnUse" spreadMethod="reflect" id="fill1"><stop offset="0" stop-color="#2B2E3A"/><stop offset="0.05" stop-color="#2C2F3B"/><stop offset="0.1" stop-color="#2D313D"/><stop offset="0.15" stop-color="#2F323F"/><stop offset="0.2" stop-color="#303341"/><stop offset="0.25" stop-color="#313542"/><stop offset="0.3" stop-color="#323644"/><stop offset="0.35" stop-color="#333745"/><stop offset="0.4" stop-color="#343846"/><stop offset="0.45" stop-color="#353948"/><stop offset="0.5" stop-color="#363A49"/><stop offset="0.55" stop-color="#373B4A"/><stop offset="0.6" stop-color="#383B4B"/><stop offset="0.65" stop-color="#383C4C"/><stop offset="0.7" stop-color="#393D4C"/><stop offset="0.75" stop-color="#393D4D"/><stop offset="0.8" stop-color="#3A3E4D"/><stop offset="0.85" stop-color="#3A3E4E"/><stop offset="0.9" stop-color="#3A3E4E"/><stop offset="0.95" stop-color="#3A3E4E"/><stop offset="1" stop-color="#3B3F4F"/></linearGradient></defs><g clip-path="url(#clip0)" transform="translate(-1275 -321)"><path d="M1275 614.339C1275 452.332 1406.33 321 1568.34 321L2741.66 321C2903.67 321 3035 452.332 3035 614.339L3035 1787.66C3035 1949.67 2903.67 2081 2741.66 2081L1568.34 2081C1406.33 2081 1275 1949.67 1275 1787.66Z" fill="#000000" fill-rule="evenodd" fill-opacity="0.101961"/><path d="M1298 1768 3014 1768C3014 1929.82 2885.95 2061 2727.99 2061L1584.01 2061C1426.05 2061 1298 1929.82 1298 1768Z" fill="#2B2E3A" fill-rule="evenodd"/><path d="M1298 634C1298 472.18 1426.05 341 1584.01 341L2727.99 341C2885.95 341 3014 472.18 3014 634L1298 634Z" fill="#4A4F62" fill-rule="evenodd"/><path d="M1298 660.308C1298 510.187 1421.42 354 1567.73 354L2729.86 354C2876.18 354 3014 510.187 3014 660.308L3014 1747.55C3014 1897.67 2876.18 2044 2729.86 2044L1568.94 2043.19C1422.63 2043.19 1298 1897.67 1298 1747.55L1298 660.308Z" fill="url(#fill1)" fill-rule="evenodd"/><path d="M1298 648C1298 485.628 1426.05 354 1584.01 354L2727.99 354C2885.95 354 3014 485.628 3014 648L1298 648Z" fill="#2B2E3A" fill-rule="evenodd" fill-opacity="0.501961"/><rect x="1298" y="648" width="1716" height="643" fill="#2B2E3A" fill-opacity="0.501961"/><path d="M2006.91 887.511C1864.88 861.657 1752.57 888.717 1707.82 966.201 1674.42 1024.02 1683.96 1100.68 1730.97 1182.63 1734.82 1189.69 1743.67 1192.29 1750.73 1188.44 1757.8 1184.59 1760.4 1175.75 1756.55 1168.69 1756.45 1168.5 1756.35 1168.32 1756.24 1168.14 1713.9 1094.33 1705.66 1028.17 1733.04 980.761 1770.23 916.394 1870.39 892.255 2001.68 916.154 2009.62 917.474 2017.12 912.115 2018.45 904.183 2019.73 896.422 2014.63 889.039 2006.91 887.511ZM1804.83 1282.23C1862.26 1345.31 1936.87 1404.48 2021.96 1453.58 2227.99 1572.47 2447.33 1604.25 2555.43 1530.58 2562.15 1526.16 2564.02 1517.14 2559.61 1510.42 2555.19 1503.7 2546.16 1501.83 2539.44 1506.24 2539.29 1506.34 2539.15 1506.43 2539.02 1506.53 2442.27 1572.46 2233.92 1542.27 2036.53 1428.37 1953.98 1380.73 1881.73 1323.43 1826.38 1262.63 1820.99 1256.67 1811.77 1256.2 1805.8 1261.58 1799.83 1266.97 1799.36 1276.18 1804.75 1282.15 1804.78 1282.18 1804.8 1282.2 1804.83 1282.23Z" fill="#9FEAF9" fill-rule="evenodd"/><path d="M2520.5 1263.76C2613.38 1153.94 2645.82 1043.48 2601.2 966.15 2568.38 909.245 2498.99 879.201 2406.76 878 2398.72 878.012 2392.22 884.541 2392.23 892.582 2392.24 900.46 2398.52 906.9 2406.38 907.116 2489.33 908.197 2549.11 934.081 2576.01 980.711 2613.06 1044.94 2584.14 1143.44 2498.29 1244.95 2493.03 1251.02 2493.69 1260.22 2499.76 1265.49 2505.84 1270.75 2515.02 1270.09 2520.28 1264.01 2520.35 1263.93 2520.42 1263.84 2520.5 1263.76ZM2281.78 891.556C2197.79 909.567 2108.39 944.781 2022.54 994.387 1810.11 1117.13 1671.53 1298.14 1690.78 1429.38 1691.85 1437.35 1699.17 1442.94 1707.14 1441.87 1715.1 1440.79 1720.69 1433.47 1719.62 1425.5 1719.6 1425.38 1719.58 1425.26 1719.57 1425.15 1702.48 1308.62 1833.83 1137.05 2037.09 1019.6 2120.37 971.479 2206.93 937.383 2287.87 920.027 2295.75 918.473 2300.89 910.816 2299.33 902.926 2297.78 895.036 2290.13 889.901 2282.24 891.456 2282.09 891.487 2281.93 891.52 2281.78 891.556Z" fill="#9FEAF9" fill-rule="evenodd"/><path d="M1938.02 1520.77C1986.61 1656.46 2066.11 1740 2155.5 1740 2220.7 1740 2281.02 1695.56 2328.05 1617.32 2332.29 1610.49 2330.2 1601.51 2323.37 1597.27 2316.54 1593.03 2307.56 1595.13 2303.32 1601.96 2303.25 1602.08 2303.18 1602.2 2303.1 1602.32 2260.83 1672.63 2208.91 1710.89 2155.5 1710.89 2081.25 1710.89 2010.34 1636.38 1965.43 1510.97 1962.87 1503.34 1954.62 1499.23 1947 1501.79 1939.38 1504.34 1935.27 1512.59 1937.82 1520.21 1937.88 1520.4 1937.95 1520.59 1938.02 1520.77ZM2381.88 1494.23C2407.04 1413.85 2420.55 1321.12 2420.55 1224.49 2420.55 983.364 2336.15 775.506 2215.94 722.134 2208.52 719.028 2200 722.521 2196.89 729.936 2193.88 737.13 2197.07 745.42 2204.13 748.736 2311.34 796.344 2391.43 993.608 2391.43 1224.49 2391.43 1318.24 2378.35 1408.04 2354.1 1485.54 2351.59 1493.17 2355.74 1501.4 2363.38 1503.91 2371.02 1506.42 2379.24 1502.27 2381.76 1494.63 2381.8 1494.5 2381.84 1494.36 2381.88 1494.23ZM2656 1479.98C2656 1441.5 2624.81 1410.32 2586.34 1410.32 2547.87 1410.32 2516.68 1441.5 2516.68 1479.98 2516.68 1518.45 2547.87 1549.64 2586.34 1549.64 2624.81 1549.64 2656 1518.45 2656 1479.98ZM2626.89 1479.98C2626.89 1502.37 2608.73 1520.53 2586.34 1520.53 2563.95 1520.53 2545.79 1502.37 2545.79 1479.98 2545.79 1457.58 2563.95 1439.42 2586.34 1439.42 2608.73 1439.42 2626.89 1457.58 2626.89 1479.98ZM1723.66 1549.64C1762.14 1549.64 1793.33 1518.45 1793.33 1479.98 1793.33 1441.5 1762.13 1410.32 1723.66 1410.32 1685.19 1410.32 1654 1441.5 1654 1479.98 1654 1518.45 1685.19 1549.64 1723.66 1549.64ZM1723.66 1520.53C1701.26 1520.53 1683.11 1502.37 1683.11 1479.98 1683.11 1457.58 1701.26 1439.42 1723.66 1439.42 1746.06 1439.42 1764.21 1457.58 1764.21 1479.98 1764.21 1502.37 1746.06 1520.53 1723.66 1520.53Z" fill="#9FEAF9" fill-rule="evenodd"/><path d="M2155 793.312C2193.66 793.312 2225 762.127 2225 723.656 2225 685.185 2193.66 654 2155 654 2116.34 654 2085 685.185 2085 723.656 2085 762.127 2116.34 793.312 2155 793.312ZM2155 764.206C2132.5 764.206 2114.25 746.052 2114.25 723.656 2114.25 701.261 2132.5 683.106 2155 683.106 2177.5 683.106 2195.75 701.261 2195.75 723.656 2195.75 746.052 2177.5 764.206 2155 764.206ZM2165.69 1273.85C2138.35 1279.73 2111.41 1262.44 2105.5 1235.23 2099.59 1208.03 2116.97 1181.22 2144.3 1175.33 2171.65 1169.45 2198.58 1186.74 2204.5 1213.95 2210.41 1241.16 2193.04 1267.96 2165.69 1273.85Z" fill="#9FEAF9" fill-rule="evenodd"/><path d="M2071 1082 2329 1228.5 2071 1375Z" fill="#9FEAF9" fill-rule="evenodd"/><path d="M2159.66 879.682 1945.44 673.557 2232.29 595.475Z" fill="#9FEAF9" fill-rule="evenodd"/><path d="M1854.16 1408.33 1765.81 1692.18 1567.52 1470.68Z" fill="#9FEAF9" fill-rule="evenodd"/><path d="M2457.67 1398.43 2748.57 1337.14 2651.89 1618.27Z" fill="#9FEAF9" fill-rule="evenodd"/></g></svg>